<?xml version="1.0" encoding="iso-8859-1"?>
<!-- Uploaded to: SVG Repo, www.svgrepo.com, Generator: SVG Repo Mixer Tools -->
<!DOCTYPE svg PUBLIC "-//W3C//DTD SVG 1.1//EN" "http://www.w3.org/Graphics/SVG/1.1/DTD/svg11.dtd">
<svg height="800px" width="800px" version="1.1" id="Capa_1" xmlns="http://www.w3.org/2000/svg" xmlns:xlink="http://www.w3.org/1999/xlink" 
	 viewBox="0 0 408.597 408.597" xml:space="preserve">
<g>
	<path style="fill:#020202;" d="M97.333,164.16h132.668c8.283,0,15-6.716,15-15s-6.717-15-15-15H97.333c-8.283,0-15,6.716-15,15
		S89.05,164.16,97.333,164.16z"/>
	<path style="fill:#020202;" d="M245.001,239.16c0-8.284-6.717-15-15-15H97.333c-8.283,0-15,6.716-15,15s6.717,15,15,15h132.668
		C238.284,254.16,245.001,247.444,245.001,239.16z"/>
	<path style="fill:#020202;" d="M366.367,262.697c-6.485-9.921-17.436-15.844-29.292-15.844c-6.81,0-13.426,1.972-19.131,5.702
		c-2.279,1.49-4.342,3.218-6.18,5.137c-2.004-3.679-4.757-6.924-8.098-9.535V73.703c0-3.934-1.561-7.706-4.344-10.484l-58.876-58.88
		C237.663,1.561,233.897,0,229.964,0H52.778C36.726,0,23.667,13.06,23.667,29.112v312.095c0,16.053,13.059,29.113,29.111,29.113
		h158.855c6.759,3.363,14.367,5.265,22.415,5.265h4.771l23.964,23.963c5.837,5.834,13.597,9.048,21.85,9.048
		c4.08,0,8.06-0.792,11.824-2.352c6.691-2.771,12.003-7.686,15.309-13.753c1.837,1.919,3.901,3.648,6.181,5.139
		c5.707,3.729,12.321,5.701,19.13,5.701c11.855,0,22.806-5.923,29.29-15.843c12.145-18.579,18.563-40.155,18.563-62.396
		C384.93,302.851,378.511,281.275,366.367,262.697z M185.207,337.907H55.28V32.414h154.088v43.577
		c0,10.554,8.555,19.106,19.105,19.106h43.58v149.158c-3.411,1.521-6.553,3.663-9.274,6.384l-23.96,23.96h-4.771
		c-27.843,0-50.494,22.651-50.494,50.494C183.555,329.519,184.132,333.813,185.207,337.907z M290.28,377.693
		c0,2.388-1.439,4.54-3.645,5.454c-0.73,0.303-1.498,0.45-2.259,0.45c-1.535,0-3.046-0.6-4.176-1.729l-31.282-31.282h-15.126
		c-14.057,0-25.494-11.437-25.494-25.494c0-14.057,11.438-25.494,25.494-25.494h15.126l31.282-31.282
		c1.688-1.688,4.225-2.193,6.435-1.279c2.206,0.913,3.645,3.066,3.645,5.454V377.693z M311.828,360.974
		c-1.873,0-3.768-0.527-5.453-1.628c-4.614-3.017-5.909-9.203-2.893-13.817c3.975-6.079,6.075-13.146,6.075-20.436
		c0-7.29-2.101-14.357-6.075-20.435c-3.017-4.615-1.722-10.801,2.893-13.817c4.611-3.018,10.8-1.723,13.817,2.892
		c6.103,9.336,9.329,20.18,9.329,31.361c0,11.181-3.226,22.025-9.329,31.361C318.277,359.382,315.084,360.974,311.828,360.974z
		 M345.185,373.809c-1.915,2.93-5.108,4.522-8.364,4.522c-1.874,0-3.768-0.526-5.453-1.628c-4.614-3.016-5.91-9.203-2.894-13.817
		c7.351-11.245,11.235-24.314,11.235-37.794c0-13.48-3.885-26.549-11.235-37.794c-3.017-4.614-1.721-10.801,2.894-13.817
		c4.613-3.016,10.801-1.721,13.817,2.894c9.478,14.5,14.489,31.347,14.489,48.717C359.674,342.462,354.663,359.309,345.185,373.809z
		"/>
</g>
</svg>